<svg xmlns="http://www.w3.org/2000/svg" width="174" height="146" viewBox="0 0 174 146">
    <defs>
        <linearGradient id="a" x1="50%" x2="50%" y1="100%" y2="0%">
            <stop offset="0%" stop-color="gray" stop-opacity=".25"/>
            <stop offset="54%" stop-color="gray" stop-opacity=".12"/>
            <stop offset="100%" stop-color="gray" stop-opacity=".1"/>
        </linearGradient>
        <linearGradient id="b" x1="50%" x2="50%" y1="100%" y2="0%">
            <stop offset="0%" stop-opacity=".12"/>
            <stop offset="55%" stop-opacity=".09"/>
            <stop offset="100%" stop-opacity=".02"/>
        </linearGradient>
        <linearGradient id="c" x1="50%" x2="50%" y1="-512.903%" y2="-512.903%">
            <stop offset="0%" stop-opacity=".12"/>
            <stop offset="55%" stop-opacity=".09"/>
            <stop offset="100%" stop-opacity=".02"/>
        </linearGradient>
        <linearGradient id="d" x1="0%" y1="50%" y2="50%">
            <stop offset="0%" stop-opacity=".12"/>
            <stop offset="55%" stop-opacity=".09"/>
            <stop offset="100%" stop-opacity=".02"/>
        </linearGradient>
        <linearGradient id="e" x1="0%" y1="50%" y2="50%">
            <stop offset="0%" stop-color="gray" stop-opacity=".25"/>
            <stop offset="54%" stop-color="gray" stop-opacity=".12"/>
            <stop offset="100%" stop-color="gray" stop-opacity=".1"/>
        </linearGradient>
        <linearGradient id="f" x1="50%" x2="50%" y1="100%" y2=".008%">
            <stop offset="0%" stop-color="gray" stop-opacity=".25"/>
            <stop offset="54%" stop-color="gray" stop-opacity=".12"/>
            <stop offset="100%" stop-color="gray" stop-opacity=".1"/>
        </linearGradient>
    </defs>
    <g fill="none" fill-rule="evenodd">
        <path fill="#325FFF" d="M13.832 0h146.537v146H13.832z" opacity=".2"/>
        <path fill="#325FFF" d="M35.882 13.631h102.235v118.937H35.882z" opacity=".5"/>
        <path fill="url(#a)" d="M119.274 20.971H174v104.856h-54.726zM0 21.371h54.726v104.856H0z"/>
        <path fill="#325FFF" d="M121.078 22.569h51.118v101.062h-51.118zM52.922 123.63H1.804V22.57h51.118z"/>
        <path fill="url(#b)" d="M10.224 31.756h34.279v6.192H10.224zM129.698 41.144h34.279v6.192h-34.279zM129.498 50.731h34.279v6.192h-34.279zM129.498 60.317h34.279v6.192h-34.279zM129.498 69.904h34.279v6.192h-34.279zM129.498 79.491h34.279v6.192h-34.279zM129.498 89.078h34.279v6.192h-34.279zM129.498 98.665h34.279v6.192h-34.279zM129.498 108.252h34.279v6.192h-34.279z"/>
        <path fill="url(#c)" d="M129.498 31.756h34.279v6.192h-34.279z"/>
        <path fill="url(#d)" d="M10.224 41.543h34.279v6.192H10.224zM10.224 50.93h34.279v6.192H10.224zM10.224 60.317h34.279v6.192H10.224zM10.224 69.904h34.279v6.192H10.224zM10.224 79.491h34.279v6.192H10.224z"/>
        <path fill="#FFF" d="M11.025 32.555h32.876v4.793H11.025zM10.925 41.943h32.876v4.793H10.925zM10.925 51.529h32.876v4.793H10.925zM10.925 61.116h32.876v4.793H10.925zM10.925 70.703h32.876v4.793H10.925zM10.925 80.29h32.876v4.793H10.925z"/>
        <path fill="url(#d)" d="M10.224 89.078h34.279v6.192H10.224z"/>
        <path fill="#FFF" d="M10.925 89.877h32.876v4.793H10.925z"/>
        <path fill="#FFF" d="M10.925 89.877h32.876v4.793H10.925zM10.925 99.464h32.876v4.793H10.925zM10.925 109.051h32.876v4.793H10.925zM130.3 32.356h32.876v4.793H130.3zM130.3 41.943h32.876v4.793H130.3zM130.3 51.529h32.876v4.793H130.3zM130.3 61.116h32.876v4.793H130.3zM130.3 70.703h32.876v4.793H130.3zM130.3 80.29h32.876v4.793H130.3zM130.3 89.877h32.876v4.793H130.3zM130.3 99.464h32.876v4.793H130.3zM130.3 109.051h32.876v4.793H130.3z"/>
        <path fill="url(#e)" d="M26.461 128.824h120.878v7.59H26.461z"/>
        <path fill="#325FFF" d="M27.463 129.622h119.074v5.992H27.463z"/>
        <path fill="url(#a)" d="M26.862 9.986h120.677v7.789H26.862z"/>
        <path fill="#325FFF" d="M27.463 10.585h119.074v5.992H27.463z"/>
        <path fill="#263238" d="M57.933 22.569h58.535v101.062H57.933z" opacity=".5"/>
        <path fill="url(#f)" d="M132.236 66.519c1.403 1.873-.698 4.086-.698 4.086l.353.122c-.519.573-2.57 3.16-10.476 14.86-10.123 14.98-23.765 18.716-23.765 18.716a16.861 16.861 0 0 0-5.558-2.858v-1.414a16.61 16.61 0 0 0 11.085-10.681 16.942 16.942 0 0 0 1.832-7.678c0-9.587-7.972-17.364-17.805-17.364-9.832 0-17.804 7.775-17.804 17.364a16.942 16.942 0 0 0 1.832 7.678 16.61 16.61 0 0 0 11.085 10.681v1.414a16.861 16.861 0 0 0-5.559 2.858s-13.647-3.74-23.77-18.72c-7.906-11.7-9.957-14.289-10.476-14.86l.353-.122s-2.095-2.213-.698-4.086c1.397-1.874-9.251-4.087-8.03 0 1.22 4.086 2.792 6.13 2.792 6.13s22.291 35.028 33.928 40.816a16.008 16.008 0 0 0-.413 3.619v6.81h33.513v-6.81c0-1.218-.138-2.433-.413-3.62 11.627-5.791 33.928-40.814 33.928-40.814s1.572-2.043 2.792-6.13c1.221-4.086-9.425-1.87-8.028.003z"/>
        <ellipse cx="87.2" cy="82.581" fill="#263238" rx="17.051" ry="16.989"/>
        <ellipse cx="87.2" cy="85.247" fill="#F8C198" rx="16.049" ry="15.99"/>
        <ellipse cx="80.848" cy="81.748" fill="#263238" rx="2.007" ry="1.999"/>
        <ellipse cx="93.888" cy="81.748" fill="#263238" rx="2.007" ry="1.999"/>
        <path fill="#FFF" d="M91.881 92.573c0 1.199-2.095 3.166-4.68 3.166-2.586 0-4.681-1.967-4.681-3.166 0-1.198 2.095-1.166 4.68-1.166 2.586 0 4.681-.032 4.681 1.166z"/>
        <ellipse cx="81.349" cy="81.748" fill="#FFF" rx="1" ry="1"/>
        <ellipse cx="94.555" cy="81.748" fill="#FFF" rx="1" ry="1"/>
        <path fill="#263238" d="M88.804 76.371c-.978 0-1.856-.846-1.96-1.815a2.396 2.396 0 0 1 1.403-2.347.688.688 0 0 1 .295-.076c.336 0 .503.4.61.717.338.983.935 1.942 1.873 2.397.938.455 2.25.222 2.745-.693-1.327-.59-1.895-2.439-1.123-3.665.299-.473.764-.875.858-1.426.172-.999-.926-1.726-1.898-2.025-2.807-.865-12.59-.961-13.129 3.211-.565 4.402 7.245 6.306 10.326 5.722z"/>
        <ellipse cx="71.818" cy="85.418" fill="#F8C198" rx="1.002" ry="2.834" transform="rotate(-21.53 71.818 85.418)"/>
        <ellipse cx="102.579" cy="85.407" fill="#F8C198" rx="2.834" ry="1.002" transform="rotate(-68.47 102.579 85.407)"/>
        <path fill="#FF9800" d="M97.205 104.725s13.064-3.655 22.76-18.313c9.697-14.658 10.198-14.698 10.198-14.698l5.182 2.039s-24.071 38.643-34.435 40.642c-10.364 2-3.705-9.67-3.705-9.67z"/>
        <path fill="#F8C198" d="M129.664 71.756s2.005-2.165.67-3.995 8.86-3.994 7.69 0c-1.171 3.995-2.675 5.992-2.675 5.992l-5.685-1.997z"/>
        <path fill="#FF9800" d="M77.195 104.725s-13.064-3.655-22.76-18.313C44.74 71.754 44.238 71.714 44.238 71.714l-5.182 2.039s24.073 38.643 34.439 40.642c10.366 2 3.7-9.67 3.7-9.67z"/>
        <path fill="#F8C198" d="M44.737 71.756s-2.005-2.165-.67-3.995-8.86-3.994-7.69 0c1.171 3.995 2.675 5.992 2.675 5.992l5.685-1.997z"/>
        <g fill="#FFF" opacity=".2">
            <path d="M92.671 68.46c-.096.551-.561.95-.858 1.426-.675 1.075-.325 2.629.666 3.396a2.546 2.546 0 0 1 .17-2.225c.299-.474.764-.875.858-1.426.108-.626-.283-1.145-.828-1.518.014.115.012.232-.008.347zM88.495 72.303a6.613 6.613 0 0 1-.176-.453c-.108-.318-.275-.707-.611-.717a.688.688 0 0 0-.295.075 2.396 2.396 0 0 0-1.403 2.347c.075.594.401 1.128.896 1.468a1.871 1.871 0 0 1-.06-.301 2.396 2.396 0 0 1 1.403-2.347.778.778 0 0 1 .246-.072zM87.082 75.467c-2.437.101-6.37-.825-8.309-2.797 1.447 3.068 7.427 4.352 10.023 3.86a2.021 2.021 0 0 1-1.714-1.063zM92.75 73.82c-.586.686-1.72.83-2.557.424a2.915 2.915 0 0 1-.741-.521c.324.72.878 1.313 1.577 1.686.938.453 2.25.221 2.745-.693a2.379 2.379 0 0 1-1.025-.895z"/>
        </g>
        <path fill="#FFF" d="M134.68 73.753s-24.074 38.643-34.45 40.642c-.6.12-1.207.194-1.818.222.835.024 1.67-.05 2.488-.222 10.366-1.997 34.44-40.642 34.44-40.642l-.538-.19c-.074.126-.122.19-.122.19zM39.721 73.753s24.074 38.643 34.45 40.642c.6.12 1.207.194 1.818.222-.835.024-1.67-.05-2.488-.222-10.366-1.997-34.44-40.642-34.44-40.642l.538-.19c.074.126.122.19.122.19z" opacity=".2"/>
        <path fill="#FF9800" d="M87.2 101.237c4.257 0 8.339 1.685 11.349 4.684a15.96 15.96 0 0 1 4.7 11.306v6.663H71.152v-6.663c0-4.24 1.69-8.308 4.7-11.306a16.079 16.079 0 0 1 11.348-4.684z"/>
        <path fill="#FFF" d="M87.367 101.321c-.584 0-1.168.031-1.748.094.2 0 .383-.012.577-.012 8.864 0 16.049 7.16 16.049 15.99v6.58h1.17v-6.662c0-4.24-1.69-8.308-4.7-11.306a16.079 16.079 0 0 0-11.348-4.684z" opacity=".2"/>
        <path fill="#FFF" d="M87.034 101.321c.584 0 1.168.031 1.748.094-.2 0-.383-.012-.577-.012-8.864 0-16.05 7.16-16.05 15.99v6.58h-1.17v-6.662c0-8.83 7.186-15.99 16.05-15.99z" opacity=".2"/>
        <rect width="9.362" height="11.243" x="82.52" y="96.823" fill="#F8C198" rx="4.67"/>
    </g>
</svg>
