<svg xmlns="http://www.w3.org/2000/svg" width="548" height="378" viewBox="0 0 548 378">
    <defs>
        <linearGradient id="a" x1="50%" x2="50%" y1="99.991%" y2="-.003%">
            <stop offset="0%" stop-color="gray" stop-opacity=".25"/>
            <stop offset="54%" stop-color="gray" stop-opacity=".12"/>
            <stop offset="100%" stop-color="gray" stop-opacity=".1"/>
        </linearGradient>
    </defs>
    <g fill="none" fill-rule="evenodd">
        <path fill="#325FFF" d="M4.683 198.815c9.674-15.797 31.551-13.043 47.065-4.797 15.514 8.246 30.994 20.555 48.068 18.19 14.395-1.996 26.2-14.545 32.577-29.022 6.378-14.477 8.25-30.801 10.044-46.79 2.255-20.086 4.509-40.185 6.761-60.297.825-7.354 1.8-15.115 5.936-20.934 5.466-7.675 15.485-10.035 24.055-7.728 8.57 2.307 15.879 8.495 22.131 15.398 20.03 22.105 31.378 51.985 48.889 76.584 3.565 5.008 7.59 9.958 12.917 12.376 7.678 3.478 16.493 1.017 23.993-2.854 24.473-12.612 40.913-38.347 57.07-62.36 7.86-11.672 17.443-24.153 30.52-25.425 13.757-1.367 25.7 10.352 33.786 22.762 25.951 39.93 31.513 94.442 62.862 129.268 3.891 4.318 8.186 8.309 13.134 10.99a33.908 33.908 0 0 0 5.086 2.23c27.352 9.465 36.47 47.457 16.239 69.983-.437.48-.883.96-1.334 1.44-3.004 3.17-6.407 6.168-10.466 7.113-3.777.873-7.678-.134-11.42-1.223-23.927-6.98-47.565-17.648-72.301-17.13-24.07.48-46.902 11.594-70.703 15.595-16.003 2.691-32.285 2.154-48.466 1.574a13770.246 13770.246 0 0 1-161.64-6.764c-26.738-1.228-53.486-2.399-80.219-3.766-20.595-1.07-33.715-3.425-36.104-27.318-2.093-20.925-20.884-46.833-8.48-67.095z" opacity=".1"/>
        <ellipse cx="379.521" cy="359.551" fill="#30374E" rx="129.557" ry="18.099"/>
        <path fill="#325FFF" d="M71.854 281.47s6.334-1.438 10.485 2.817c0 0-2.668 2.398-8.944-.26l-1.54-2.556zM71.154 281.409s-3.753 5.315-1.373 10.769c0 0 3.244-1.56 3.153-8.371l-1.78-2.398zM66.93 273.398s2.251-4.87 12.957 1.017c0 0-1.152 3.252-5.7 3.3-4.55.048-5.913-1.924-7.256-4.317zM66.25 273.1s-5.36-.25-5.058 11.954c0 0 3.421.48 5.557-3.54 2.135-4.02 1.002-6.097-.5-8.414zM62.516 263.602s2.4-8.48 13.662-3.3c0 0-1.968 7.766-12.38 6.063l-1.282-2.763zM58.337 251.447s5.076-8.75 15.59-1.65c0 0-2.97 8.092-14.535 4.58l-1.055-2.93zM56.35 239.742s6.06-8.13 16.488-1.108c0 0-5.787 7.167-16.358 3.07l-.13-1.962zM54.555 228.364s6.123-8.472 16.119-1.511c0 0-7.045 7.593-15.994 3.391l-.125-1.88zM54.469 218.165s6.31-10.807 15.667-4.398c0 0-6.92 9.387-15.533 6.36l-.134-1.962zM55.318 206.183s6.718-10.745 15.879-3.445c0 0-8.206 9.474-15.773 5.35l-.106-1.905zM57.06 195.409s8.158-10.223 16.1-6.893c0 0-8.484 10.84-16.316 9.478l.216-2.585zM59.46 185.143s9.376-12.472 15.533-8.932c0 0-6.867 9.637-16.114 11.201l.58-2.269zM63.116 173.18s8.24-10.227 14.876-8.27c0 0-6.934 10.5-15.884 11.359l1.008-3.09zM66.403 161.998s9.204-9.882 13.585-8.548c0 0-6.406 10.726-13.878 10.625l.293-2.077zM69.652 151.656s7.72-11.585 12.39-11.033c0 0-4.468 10.164-12.314 12.15l-.076-1.117zM73.006 137.788s6.905-8.951 10.945-9.2c0 0-5.139 11.675-11.07 11.992l.125-2.792zM74.925 128.573l6.037-18.08s1.44 15.878-6.718 21.404l.681-3.324zM76.552 108.972s.211-14.77-.638-15.911c0 0 5.984 11.868 1.027 22.406l-.389-6.495zM62.209 263.425s-7.802-4.135-11.886 7.545c0 0 6.958 3.972 12.956-4.705l-1.07-2.84zM58.063 250.991s-9.463-3.574-13.124 8.577c0 0 7.423 4.39 14.16-5.641l-1.036-2.936zM55.97 240.476s-7.096-7.248-16.487 1.118c0 0 6.69 6.327 16.617.858l-.13-1.976zM54.33 228.383s-7.198-7.584-16.176.652c0 0 7.994 6.587 16.315 1.224l-.14-1.876zM54.488 218.453s-5.451-11.258-15.274-5.598c0 0 6.171 9.896 14.991 7.55l.283-1.952z"/>
        <path fill="#325FFF" d="M55.88 206.096s-5.437-11.464-15.385-5.31c0 0 7.035 10.366 15.04 7.162l.345-1.852zM58.053 195.4s-2.706-12.785-11.3-13.37c0 0 2.725 13.494 10.322 15.772l.978-2.403zM59.68 185.153s-1.76-15.5-8.858-15.571c0 0 1.032 11.786 8.21 17.82l.648-2.25zM63.821 172.686s-2.98-12.79-9.822-13.912c0 0 1.68 12.472 9.371 17.135l.451-3.223zM67.21 162.036s-.96-13.465-5.231-15.168c0 0-1.733 12.367 4.15 16.972l1.08-1.804zM69.959 151.488s-1.512-13.84-5.907-15.504c0 0-.72 11.076 5.326 16.454l.58-.95zM73.678 138.853s-.787-11.278-4.007-13.724c0 0-2.198 12.563 2.567 16.098l1.44-2.374z"/>
        <path fill="#325FFF" d="M74.513 128.04l-4.223-18.583s-2.99 15.657 4.592 21.96l-.37-3.377zM73.855 109.332s-8.46-12.127-8.393-13.537c0 0 1.7 13.182 11.714 19.135l-3.32-5.598zM74.513 105.547S66.134 88.091 62.79 86.84c0 0 10.6 4.524 12.289 18.133l-.566.575z"/>
        <path fill="#444053" d="M72.852 140.67l-.48-.12c4.727-20.146 5.394-32.849 1.872-35.765l.326-.394c3.714 3.09 3.129 15.638-1.718 36.28z"/>
        <path fill="#444053" d="M59.282 187.997l-.744-.206c.523-1.851 1.09-3.737 1.694-5.593 5.278-16.175 9.664-31.18 12.356-42.664l.61-.36c-2.697 11.513-6.963 27.07-12.232 43.259-.6 1.852-1.166 3.722-1.684 5.564z"/>
        <path fill="#444053" d="M81.86 295.641c-.106-.1-10.663-10.49-18.773-28.897a111.436 111.436 0 0 1-8.93-33.948c-1.44-14.645.528-31.242 4.799-46.482l.614.633c-9.597 34.207-2.97 62.523 4.429 79.342 8.028 18.228 18.465 28.517 18.57 28.618l-.71.734z"/>
        <path fill="#325FFF" d="M93.482 240.855s3.838-.878 6.343 1.703c0 0-1.617 1.44-5.408-.158l-.935-1.545zM93.064 240.821s-2.265 3.214-.825 6.51c0 0 1.957-.96 1.92-5.06l-1.095-1.45zM90.511 235.972s1.358-2.94 7.822.619c0 0-.696 1.962-3.446 1.99-2.75.03-3.555-1.16-4.376-2.61zM90.098 235.794s-3.243-.148-3.061 7.225c0 0 2.068.287 3.359-2.14 1.29-2.427.61-3.684-.298-5.085zM87.829 230.052s1.473-5.128 8.268-2.005c0 0-1.186 4.696-7.481 3.665l-.787-1.66zM85.314 222.703s3.067-5.276 9.425-.997c0 0-1.8 4.893-8.786 2.767l-.639-1.77zM84.11 215.628s3.666-4.917 9.967-.672c0 0-3.494 4.318-9.886 1.857l-.081-1.185zM83.025 208.75s3.705-5.124 9.746-.912c0 0-4.256 4.59-9.669 2.048l-.077-1.137zM82.977 202.58s3.84-6.528 9.468-2.657c0 0-4.184 5.674-9.39 3.837l-.078-1.18zM83.476 195.342s4.074-6.5 9.598-2.101c0 0-4.962 5.727-9.54 3.233l-.058-1.132zM84.542 188.827s4.928-6.178 9.731-4.163c0 0-5.13 6.552-9.851 5.727l.12-1.564zM85.99 182.62s5.668-7.536 9.392-5.401c0 0-4.151 5.828-9.741 6.773l.35-1.372zM88.203 175.396s4.981-6.183 9.002-4.999c0 0-4.189 6.347-9.597 6.865l.595-1.866zM90.19 168.627s5.561-5.972 8.21-5.166c0 0-3.868 6.48-8.388 6.423l.178-1.257zM92.152 162.377s4.67-7.004 7.49-6.677c0 0-2.696 6.144-7.442 7.348l-.048-.671zM94.187 153.992s4.175-5.411 6.617-5.565c0 0-3.11 7.061-6.694 7.239l.077-1.674zM95.343 148.418l3.642-10.918s.864 9.594-4.074 12.952l.432-2.034zM96.327 136.57s.125-8.928-.389-9.619c0 0 3.619 7.172.62 13.547l-.23-3.929zM87.651 229.947s-4.712-2.504-7.198 4.557c0 0 4.209 2.398 7.836-2.84l-.638-1.717zM85.151 222.406s-5.725-2.159-7.937 5.185c0 0 4.487 2.653 8.561-3.405l-.624-1.78zM83.88 216.07s-4.286-4.38-9.967.67c0 0 4.045 3.838 10.048.519l-.081-1.19zM82.891 208.759s-4.352-4.581-9.78.398c0 0 4.833 3.976 9.857.739l-.077-1.137zM82.987 202.738s-3.297-6.806-9.237-3.386c0 0 3.733 5.982 9.064 4.567l.173-1.18z"/>
        <path fill="#325FFF" d="M83.827 195.28s-3.287-6.932-9.314-3.21c0 0 4.251 6.27 9.093 4.317l.22-1.108zM85.142 188.827s-1.637-7.732-6.834-8.083c0 0 1.646 8.155 6.239 9.532l.595-1.449zM86.125 182.625s-1.055-9.369-5.374-9.417c0 0 .624 7.129 4.962 10.78l.412-1.363zM88.625 175.089s-1.8-7.733-5.936-8.414c0 0 1.018 7.536 5.668 10.357l.268-1.943zM90.674 168.651s-.59-8.155-3.157-9.171c0 0-1.051 7.478 2.505 10.26l.652-1.089zM92.34 162.271s-.912-8.366-3.57-9.373c0 0-.437 6.716 3.22 9.949l.35-.576zM94.585 154.635s-.48-6.817-2.4-8.3c0 0-1.328 7.6 1.55 9.734l.85-1.434z"/>
        <path fill="#325FFF" d="M95.103 148.096l-2.552-11.234s-1.81 9.47 2.773 13.278l-.22-2.044zM94.696 136.79s-5.111-7.325-5.073-8.184c0 0 1.023 7.968 7.078 11.566l-2.005-3.382zM95.08 134.497s-5.068-10.553-7.088-11.297c0 0 6.41 2.734 7.428 10.966l-.34.331z"/>
        <path fill="#444053" d="M94.086 155.728l-.302-.072c2.879-12.18 3.263-19.859 1.132-21.62l.197-.24c2.26 1.871 1.905 9.46-1.027 21.932z"/>
        <path fill="#444053" d="M85.885 184.347l-.45-.13a82.049 82.049 0 0 1 1.026-3.357c3.182-9.781 5.84-18.852 7.467-25.794l.37-.22c-1.632 6.955-4.21 16.367-7.395 26.157a76.406 76.406 0 0 0-1.018 3.344z"/>
        <path fill="#444053" d="M99.533 249.422c-.063-.062-6.445-6.341-11.35-17.47a67.484 67.484 0 0 1-5.398-20.521c-.878-8.856.322-18.89 2.908-28.106l.37.384c-5.802 20.68-1.795 37.8 2.677 47.97 4.857 11.032 11.162 17.235 11.23 17.297l-.437.446z"/>
        <path fill="#AFC0E0" d="M113.967 273.407a18.355 18.355 0 0 0-3.6 1.027c-25.883 10.332-25.451 77.97-25.451 77.97h-7.62s-2.4-29.027-12.856-70.439c-9.42-37.258 29.214-70.65 37.06-76.982.883-.705 1.372-1.079 1.372-1.079 38.912 14.295 11.095 69.503 11.095 69.503z"/>
        <path fill="#FFF" d="M105.704 205.08a37.63 37.63 0 0 0-2.808-1.166s-.48.374-1.372 1.079c-7.846 6.332-46.48 39.724-37.06 76.982 10.457 41.412 12.832 70.428 12.832 70.428h4.285s-2.375-29.026-12.855-70.438c-9.382-37.085 28.878-70.352 36.978-76.886z" opacity=".2"/>
        <path fill="#AFC0E0" d="M242.348 281.975c-10.48 41.412-12.84 70.428-12.84 70.428h-7.635s.48-70.687-27.223-78.578c-.6-.18-1.21-.323-1.828-.427 0 0-27.832-55.209 11.094-69.494 0 0 .394.293 1.104.864 7.212 5.77 46.854 39.517 37.328 77.207z"/>
        <path fill="#000" d="M113.967 273.407a18.355 18.355 0 0 0-3.6 1.027 469.57 469.57 0 0 1-8.867-69.441c.883-.705 1.372-1.08 1.372-1.08 38.912 14.286 11.095 69.494 11.095 69.494zM205.035 204.777a432.068 432.068 0 0 1-10.37 69.076c-.6-.18-1.21-.322-1.829-.427 0 0-27.831-55.208 11.095-69.493-.015-.02.379.273 1.104.844z" opacity=".1"/>
        <path fill="#E3E8F4" d="M190.787 283.874c-2.687 10.598-5.836 21.471-9.448 32.62 0 0-17.14 17.849-58.543 0 0 0-4.136-11.657-8.685-31.473-10.015-43.571-22.026-126.602 3.565-211.887A317.383 317.383 0 0 1 149.913 0s21.862 25.093 37.909 73.12c16.046 48.027 26.258 118.998 2.965 210.754z"/>
        <ellipse cx="153.392" cy="140.839" fill="#AFC0E0" rx="34.372" ry="34.361"/>
        <path fill="#325FFF" d="M177.769 140.858c0 9.419-5.43 17.995-13.947 22.025a24.384 24.384 0 0 1-25.881-3.178 24.626 24.626 0 0 1-4.569-4.955 23.983 23.983 0 0 1-1.574-2.586 24.314 24.314 0 0 1-2.778-11.306v-.58a24.399 24.399 0 0 1 17.755-22.892 25.215 25.215 0 0 1 5.873-.892h.73a24.381 24.381 0 0 1 17.244 7.13 24.364 24.364 0 0 1 7.147 17.234z"/>
        <path fill="#AFC0E0" d="M187.817 73.12c-38.998 18.665-70.165 0-70.165 0A317.383 317.383 0 0 1 149.913 0s21.862 25.093 37.904 73.12zM190.787 283.874a514.656 514.656 0 0 1-6.094 21.898 453.009 453.009 0 0 1-3.359 10.707s-17.14 17.85-58.543 0c0 0-1.343-3.785-3.359-10.707-1.506-5.228-3.383-12.237-5.34-20.766 0 0 15.413 6.577 37.29 6.577a102.773 102.773 0 0 0 39.405-7.709z"/>
        <path fill="#E3E8F4" d="M184.693 305.772a453.009 453.009 0 0 1-3.359 10.707s-17.14 17.85-58.543 0c0 0-1.343-3.785-3.359-10.707-.004 0 42.194 12.137 65.261 0z"/>
        <path fill="#FFF" d="M146.79 117.353l-.054.038-17.706 22.853v.58a24.314 24.314 0 0 0 2.778 11.307l20.864-35.67-5.883.892zM152.442 137.98l-14.501 21.706a24.626 24.626 0 0 1-4.569-4.955l17.275-18.536 1.795 1.785z" opacity=".2"/>
        <path fill="#FFF" d="M132.057 316.484s-4.136-11.662-8.685-31.473c-10.015-43.575-22.026-126.606 3.565-211.891a318.546 318.546 0 0 1 28.24-66.241C151.928 2.327 149.9.005 149.9.005a317.35 317.35 0 0 0-32.247 73.115c-25.59 85.285-13.58 168.316-3.565 211.891 4.549 19.811 8.685 31.473 8.685 31.473 16.359 7.047 28.926 8.524 38.149 7.737-7.88-.6-17.448-2.82-28.864-7.737z" opacity=".2"/>
        <path stroke="#535461" stroke-width=".96" d="M450.099 349.664s22.429-27.899 20.941-55.841a54.216 54.216 0 0 1 8.897-33.128 91.24 91.24 0 0 1 10.557-12.951"/>
        <path fill="#325FFF" d="M489.644 230.148c-1.602 3.89.797 18.075.797 18.075s11.694-8.385 13.297-12.275a7.617 7.617 0 0 0-4.146-9.944 7.621 7.621 0 0 0-9.948 4.144zM469.116 246.909c.772 4.135 10.5 14.736 10.5 14.736s5.278-13.388 4.486-17.528a7.622 7.622 0 0 0-8.89-6.095 7.62 7.62 0 0 0-6.096 8.887zM454.46 283.95c2.755 3.181 16.508 7.427 16.508 7.427s-2.226-14.214-4.98-17.399a7.622 7.622 0 0 0-10.64-.646 7.616 7.616 0 0 0-.877 10.619h-.01zM449.686 314.474c2.174 3.602 15.01 10.107 15.01 10.107s.211-14.39-1.962-17.988a7.623 7.623 0 0 0-13.2.263 7.617 7.617 0 0 0 .152 7.618zM494.102 268.49c-3.906 1.56-18.071-.983-18.071-.983s8.503-11.604 12.414-13.168a7.623 7.623 0 0 1 9.906 4.248 7.619 7.619 0 0 1-4.249 9.903zM488.065 304.117c-4.193.322-16.948-6.341-16.948-6.341s11.584-8.534 15.782-8.855a7.623 7.623 0 0 1 1.166 15.197zM477.446 337.936c-4.083 1.026-17.779-3.387-17.779-3.387s9.977-10.366 14.06-11.388a7.622 7.622 0 0 1 7.33 2.084 7.616 7.616 0 0 1-3.61 12.69z"/>
        <path fill="#000" d="M489.644 230.148c-1.602 3.89.797 18.075.797 18.075s11.694-8.385 13.297-12.275a7.617 7.617 0 0 0-4.146-9.944 7.621 7.621 0 0 0-9.948 4.144zM469.116 246.909c.772 4.135 10.5 14.736 10.5 14.736s5.278-13.388 4.486-17.528a7.622 7.622 0 0 0-8.89-6.095 7.62 7.62 0 0 0-6.096 8.887zM454.46 283.95c2.755 3.181 16.508 7.427 16.508 7.427s-2.226-14.214-4.98-17.399a7.622 7.622 0 0 0-10.64-.646 7.616 7.616 0 0 0-.877 10.619h-.01zM449.686 314.474c2.174 3.602 15.01 10.107 15.01 10.107s.211-14.39-1.962-17.988a7.623 7.623 0 0 0-13.2.263 7.617 7.617 0 0 0 .152 7.618zM494.102 268.49c-3.906 1.56-18.071-.983-18.071-.983s8.503-11.604 12.414-13.168a7.623 7.623 0 0 1 9.906 4.248 7.619 7.619 0 0 1-4.249 9.903zM488.065 304.117c-4.193.322-16.948-6.341-16.948-6.341s11.584-8.534 15.782-8.855a7.623 7.623 0 0 1 1.166 15.197zM477.446 337.936c-4.083 1.026-17.779-3.387-17.779-3.387s9.977-10.366 14.06-11.388a7.622 7.622 0 0 1 7.33 2.084 7.616 7.616 0 0 1-3.61 12.69z" opacity=".25"/>
        <path stroke="#535461" stroke-width=".96" d="M450.3 348.499s31.815-16.425 41.782-42.568a54.21 54.21 0 0 1 21.565-26.686 91.142 91.142 0 0 1 14.875-7.56"/>
        <path fill="#325FFF" d="M534.9 255.246c-3.042 2.912-6.598 16.852-6.598 16.852s14.088-2.931 17.13-5.838a7.624 7.624 0 0 0 .253-10.781 7.63 7.63 0 0 0-10.785-.252v.019zM509.342 262.254c-.96 4.097 3.623 17.749 3.623 17.749s10.217-10.107 11.205-14.228a7.617 7.617 0 0 0-5.659-9.146 7.62 7.62 0 0 0-9.169 5.625zM480.925 290.182c1.229 4.025 12.083 13.475 12.083 13.475s3.729-13.911 2.5-17.917a7.621 7.621 0 0 0-12.861-2.98 7.618 7.618 0 0 0-1.722 7.422zM464.188 316.153c.528 4.178 9.626 15.321 9.626 15.321s6.027-13.062 5.494-17.24a7.62 7.62 0 0 0-8.52-6.598 7.619 7.619 0 0 0-6.6 8.517zM523.436 292.106c-4.208-.154-16.123-8.217-16.123-8.217s12.476-7.162 16.684-7.009a7.616 7.616 0 1 1-.561 15.226zM503.474 322.23c-3.969-1.405-12.928-12.663-12.928-12.663s14.055-3.104 18.02-1.698a7.62 7.62 0 1 1-5.092 14.362zM480.052 348.849c-4.146-.715-14.876-10.3-14.876-10.3s13.326-5.43 17.472-4.715a7.618 7.618 0 1 1-2.591 15.015h-.005z"/>
        <path fill="url(#a)" fill-rule="nonzero" d="M495.537 333.081l-24.66-35.751s-.48-8.85-2.073-10.918c-1.593-2.068-.346-6.668-.346-6.668s1.728-2.528.23-2.758c-1.496-.23-.23-5.867-.23-5.867l-.115-8.965s1.382-8.635.23-10.688a3.39 3.39 0 0 1 .116-3.68s1.382-4.945 0-6.207c-1.382-1.261-1.037-8.97-.691-15.062.345-6.092-2.424-9.541-2.424-10.462 0-.921-9.117-9.887-9.117-10.688 0-.8-5.758-4.14-9.218-5.06-3.46-.922-5.187-1.608-5.072-2.068.115-.46-5.418-2.298-5.418-2.298s-4.842-.345-6.689-2.763c-1.847-2.418-7.481-3.108-7.644-3.132-.034-.159-.072-.322-.106-.48a32.418 32.418 0 0 1-.105-.518c.436-.734.84-1.482 1.204-2.255.11-.235.216-.48.317-.7 2.02-.091 4.093-.523 5.677-1.76a7.727 7.727 0 0 0 2.759-5.512 12.08 12.08 0 0 0-1.349-6.126c-1.007-2.072-2.49-4.216-1.981-6.461.225-.96.806-1.823 1.103-2.773.562-1.799.043-3.775-.83-5.445-.873-1.669-2.087-3.137-3.057-4.753a18.56 18.56 0 0 1-2.432-6.716c-.197-1.247-.274-2.562-.903-3.66a6.818 6.818 0 0 0-2.02-2.039 20.193 20.193 0 0 0-12.39-3.756c-3.138.11-6.267.96-9.381.571-1.876-.23-3.666-.897-5.48-1.44-3.868-1.14-8.326-1.61-11.694.6-3.369 2.212-4.708 6.563-6.987 9.964-2.015 3.012-4.971 5.535-6.507 8.72 0-.057.029-.12.048-.182a10.431 10.431 0 0 0-.859 2.322c-.585 2.504-.096 5.123.514 7.622.311 1.29.743 2.692 1.861 3.406 1.118.715 2.702.557 4.026.792-.048.216-.105.436-.153.657-2.844 13.432 5.111 26.794 18.278 30.7v.7c-.003.661-.043 1.321-.12 1.977 0 0-11.589-2.398-14.703-.767-3.114 1.63-9.223 2.878-10.144 3.79-.922.91-3.225.23-5.279 5.636s-2.303 10.918-4.957 13.431c-2.653 2.514-4.03 4.255-4.146 6.097-.115 1.842.346 2.298-.696 2.878-1.04.58-2.533 2.989-2.073 3.91 0 0 .576 2.298-1.266 3.444-1.843 1.146-1.618 3.449-1.618 3.449s-.69 2.533-2.303 3.104c-1.612.57-2.653 4.37-2.653 4.37l-5.245 6.02-10.36-11.465a4.368 4.368 0 0 0-6.167-.316l-5.086 4.585a10.049 10.049 0 0 0-5.092 3.032 13.12 13.12 0 0 0-2.634 3.924l-2.788 2.504a7.074 7.074 0 0 0-.715 7.81l6.637 7.334.043.062c-2.51.317-4.727 1.123-6.42 2.615-9.91 8.735-10.03 16.789-8.528 20.459 1.502 3.67 14.06 17.82 14.06 17.82s7.299 9.484 17.836 14.53l-.081.082c-.207.22-.413.48-.614.72l-.173.22-.159.22-.187.279c-.052.072-.1.149-.148.225a6.79 6.79 0 0 0-.197.331l-.13.221c-.077.144-.158.293-.235.446l-.077.149c-.096.201-.192.408-.283.624-.033.076-.062.158-.096.235-.057.148-.12.302-.177.48-.058.177-.072.196-.106.297-.033.1-.1.297-.149.45a7.932 7.932 0 0 0-.096.322c-.028.106-.096.336-.139.508-.043.173-.053.202-.081.312-.063.264-.125.538-.178.825 0 .106-.038.216-.057.327-.039.191-.072.388-.101.59-.024.139-.039.278-.058.417-.019.139-.048.379-.072.57l-.043.442c0 .211-.038.432-.053.652 0 .135 0 .27-.024.403 0 .365-.038.73-.043 1.113-.23 13.432.557 15.403.557 15.403s1.626 4.284 6.118 4.591c.66.048 1.322.013 1.972-.106 5.994-1.036 20.053-3.449 25.01-2.528 2.98.552 8.499-.263 12.429-1.007l1.032-.197.72 2.284 2.279-.624 1.92 1.118 1.223.7c2.274 7.714 11.516 5.085 11.516 5.085l2.17 1.257 22.246.575s4.798 2.879 7.874 3.78c.366.111.74.193 1.118.245 2.062.165 4.133.204 6.2.115 1.703-.043 3.023-.115 3.023-.115s-.225-6.04-.552-12.798c8.503-.355 16.042-.888 20.605-1.689 11.882-2.086 16.839-12.884 18.662-18.655a54.28 54.28 0 0 1 1.166 7.162 51.19 51.19 0 0 0 1.848 6.207 20.975 20.975 0 0 0 2.533 4.596c8.763-2.989 3.46-7.47 1.613-9.427-1.848-1.957 1.271-3.564 1.271-3.564s2.4-1.607 2.188-3.103c-.21-1.497-.345-3.104 7.491-2.989 7.836.115 7.51-6.452 7.51-6.452zm-121.721-73.393c.1.657 1.195 7.742 2.183 9.594.206.393.288 1.79.26 3.785-4.646-.37-9.483-.566-9.483-.566.14.168.226.373.25.59l-.73-.163-1.06-.26 8.556-13.009.024.029zm-16.949 26.959l8.038 1.276.676.105a26.427 26.427 0 0 0-.417 3.795c0 .12.182.264.441.431a10.344 10.344 0 0 0-.158 1.92c.13.637 3.887 2.01 8.196 3.15-.058.231-.115.452-.173.658-3.805-2-9.803-2.936-10.494-4.423-.691-1.487-21.114-8.634-21.114-8.634s-.744-.394-2.03-1.017l5.374 1.017 1.478-.149c3.351.838 6.752 1.46 10.183 1.861v.01z"/>
        <path fill="#434175" d="M469.298 338.085s-3.196 19.298-19.42 22.152c-16.224 2.854-70.376 2.283-70.376 2.283s-30.96-4.451-42.156-30.604c-11.195-26.153-18.393-36.548-8.796-37.004 9.598-.456 61.35 17.475 64.302 17.7 2.95.226 79.301-39.742 76.446 25.473z"/>
        <path fill="#000" d="M469.298 338.085s-3.196 19.298-19.42 22.152c-16.224 2.854-70.376 2.283-70.376 2.283s-30.96-4.451-42.156-30.604c-11.195-26.153-18.393-36.548-8.796-37.004 9.598-.456 61.35 17.475 64.302 17.7 2.95.226 79.301-39.742 76.446 25.473z" opacity=".05"/>
        <path fill="#565387" d="M324.073 359.55s1.618 4.26 6.066 4.563c.653.046 1.309.01 1.953-.106 5.94-1.026 19.88-3.425 24.79-2.513 2.955.551 8.42-.264 12.313-.998 2.59-.48 4.481-.96 4.481-.96s-4.568-15.187-5.144-15.642c-.575-.456-20.562-12.448-20.562-12.448l-15.835-1.137h-.048s-2.932.196-5.365 3.151c-1.675 2.02-3.11 5.34-3.205 10.779-.221 13.37.556 15.312.556 15.312z"/>
        <path fill="#000" d="M324.073 359.55s1.618 4.26 6.066 4.563a65.017 65.017 0 0 1-4.319-6.275l.082-11.076c-.706-8.294 3.176-13.604 6.238-16.439h-.048s-8.34.566-8.57 13.911c-.23 13.345.551 15.317.551 15.317z" opacity=".05"/>
        <path fill="#000" d="M392.756 335.34l14.736-11.512 23.192-22.843s-2.505-.12-6.282-.283c-.96.6-3.574 2.485-3.67 4.797-.116 2.792-6.272.192-9.468 1.79-3.196 1.596-18.849 21.624-21.594 21.494-2.745-.13-4.909-1.39-6.056.552 0 .043-.052.081-.081.125l9.223 5.88zM326.727 333.47c.523.254 1.05.48 1.593.729 11.2 4.797 25.02 14.87 26.052 16.674.624 1.113 8.637 5.977 14.823 9.623 2.59-.48 4.481-.96 4.481-.96s-4.568-15.187-5.144-15.642c-.575-.456-20.562-12.448-20.562-12.448l-15.835-1.137h-.048s-2.927.206-5.36 3.16z" opacity=".1"/>
        <path fill="#434175" d="M295.651 300.735c1.483 3.656 13.916 17.706 13.916 17.706s7.88 10.275 19.08 15.072c11.2 4.797 25.02 14.87 26.046 16.674.662 1.176 9.597 6.548 15.874 10.242l1.406.82 3.12 1.808 1.65.96s3.839-3.07 7.634-6.16c3.796-3.089 7.5-6.116 7.563-6.288.11-.34 1.593-4.226 1.252-4.452-.177-.12-.96-1.703-2.399-3.535a16.228 16.228 0 0 0-5.82-4.797c-5.28-2.399-7.54-7.858-7.54-7.858s-.48-.364-1.261-.844c-1.353-.854-3.527-2.082-5.135-2.288-2.519-.317-7.198-5.454-7.198-5.454s-3.2-2.058-4.458-4.682c-1.2-2.504-18.916-14.669-20.557-15.791l42.953 27.572 10.278 6.606 14.737-11.513 23.196-22.843s-3.119-.153-7.678-.345c-11.272-.48-31.291-1.252-33.82-.681-2.06.48-4.183.617-6.286.407 0 0-5.701.26-9.473-1.731-3.772-1.991-9.717-2.922-10.403-4.394-.686-1.473-20.908-8.563-20.908-8.563s-27.53-14.616-37.357-5.934c-9.827 8.683-9.9 16.636-8.412 20.286z"/>
        <path fill="#EE8E9E" d="M384.416 216.913l3.541 11.763 4.568 26.493 16.795 1.142 4.861-8.059 4.871-8.045s3.023-10.706 5.197-21.063c1.92-9.162 3.177-18.056 1.084-19.02-1.852-.859-3.07-3.943-3.838-7.262-.101-.408-.192-.826-.279-1.243a64.556 64.556 0 0 1-1.113-8.514s-35.188-1.823-30.274 12.678a23.105 23.105 0 0 1 1.324 7.713c-.005.656-.045 1.311-.12 1.962a16.452 16.452 0 0 1-6.617 11.455z"/>
        <path fill="#E3E8F4" d="M377.103 214.97l1.257 19.985 2.855 17.015 3.2 7.881 2.856 43.115s27.549 3.185 34.248-.058a2.946 2.946 0 0 0 1.214-.959c8.09-12.199 5.436-47.58 5.436-47.58l3.086-22.849-2.059-11.858-4.966-.528-3.84-.407s-.863 1.065-2.11 2.71c-3.388 4.47-9.598 13.264-9.2 16.933.567 5.027-.686 10.165-2.63 10.966-1.943.801-3.54 2.168-3.881.801-.34-1.367-.686-1.712-.346-3.655.341-1.943-1.487-7.881-1.487-7.881s-3.08-6.966-2.88-9.935c.202-2.97-.34-6.4-1.257-7.195-.916-.797-2.169-1.603-1.142-5.277 1.027-3.675-4.506-10.77-4.506-10.77l-13.848 9.547z"/>
        <path fill="#000" d="M413.49 264.883l1.143 34.15 6.598 3.655a2.951 2.951 0 0 0 1.214-.96c8.095-12.217 5.441-47.595 5.441-47.595l3.086-22.843-2.059-11.853-4.971-.528c1.92-9.162 3.176-18.056 1.09-19.02-1.858-.859-3.077-3.943-3.869-7.263l-3.55 24.177s.297 2.178.403 4.423c.081 1.67.052 3.358-.288 4.255-.802 2.058-.23 5.713-.23 5.713-2.06 3.627-3.086 10.347-3.59 16.837-.677 8.63-.418 16.852-.418 16.852z" opacity=".1"/>
        <path fill="#565387" d="M421.274 192.099s5.758.715 7.582 3.113c1.823 2.399 6.626 2.73 6.626 2.73s5.485 1.827 5.37 2.283c-.115.456 1.598 1.146 5.029 2.058 3.431.911 9.117 4.226 9.117 5.027 0 .801 9.027 9.704 9.027 10.62 0 .917 2.744 4.318 2.399 10.39-.346 6.074-.686 13.706.686 14.962 1.372 1.257 0 6.17 0 6.17a3.357 3.357 0 0 0-.072 3.654c1.142 2.058-.225 10.626-.225 10.626l.11 8.908s-1.257 5.593.23 5.823c1.488.23-.23 2.74-.23 2.74s-1.257 4.57.345 6.624c1.603 2.053 2.054 10.85 2.054 10.85l24.473 35.498s.346 6.51-7.423 6.394c-7.77-.115-7.678 1.487-7.429 2.97.25 1.482-2.169 3.084-2.169 3.084s-3.085 1.598-1.257 3.54c1.828 1.943 7.083 6.395-1.598 9.364a20.702 20.702 0 0 1-2.514-4.567 51.66 51.66 0 0 1-1.829-6.164s-.8-8.682-2.399-9.824c-1.598-1.142-1.372-6.625-1.372-6.625s2.284-4.451-.912-6.279c-3.196-1.827-49.632-27.5-49.632-27.5l-1.142-34.15s-.801-25.237 3.997-33.69c0 0-.57-3.655.23-5.708.802-2.053-.115-8.682-.115-8.682l3.043-24.24z"/>
        <path fill="#000" d="M391.33 205.799s-11.483-2.365-14.568-.768c-3.086 1.598-9.117 2.879-10.077 3.77-.96.893-3.2.231-5.255 5.599-2.053 5.368-2.288 10.846-4.913 13.36-2.625 2.513-3.998 4.226-4.113 6.053-.115 1.828.341 2.283-.686 2.878-1.027.595-2.514 2.97-2.058 3.886.455.916 23.805 20.987 23.805 20.987s1.147 7.675 2.174 9.593c1.027 1.92-1.142 28.667-3.426 30.495-2.284 1.827 15.423 1.66 15.423 1.66s.796-17.533 1.482-18.45c.687-.916-.48-19.667-.48-19.667s-.115-15.988 1.373-20.215c1.487-4.226 1.32-18.257 1.32-18.257s1.314-8.428 2.912-10.395c1.598-1.967-2.912-10.53-2.912-10.53z" opacity=".1"/>
        <path fill="#565387" d="M390.99 205.458s-11.488-2.365-14.574-.767c-3.085 1.597-9.117 2.854-10.053 3.77-.935.916-3.195.226-5.278 5.593-2.083 5.368-2.284 10.851-4.914 13.365-2.63 2.513-3.997 4.226-4.112 6.054-.115 1.827.345 2.283-.682 2.854-1.026.57-2.514 2.97-2.058 3.88.456.912 23.762 21.016 23.762 21.016s1.143 7.675 2.17 9.594c1.026 1.919-1.143 28.662-3.427 30.49-2.284 1.827 15.423 1.659 15.423 1.659s.801-17.533 1.488-18.444c.686-.912-.48-19.668-.48-19.668s-.11-15.988 1.372-20.214c1.483-4.226 1.32-18.277 1.32-18.277s1.314-8.428 2.908-10.39c1.593-1.962-2.865-10.515-2.865-10.515z"/>
        <path fill="#000" d="M389.78 195.783a23.105 23.105 0 0 1 1.325 7.713c11.561 3.424 23.967-1.477 30.063-11.877a64.556 64.556 0 0 1-1.113-8.514s-35.183-1.823-30.274 12.678z" opacity=".1"/>
        <path fill="#EE8E9E" d="M372.42 177.737c.012 13.912 10.917 25.38 24.816 26.095 13.899.715 25.925-9.572 27.366-23.41 1.442-13.837-8.206-26.38-21.953-28.543-13.748-2.163-26.784 6.812-29.664 20.423a26.15 26.15 0 0 0-.566 5.435z"/>
        <path fill="#565387" d="M355.624 238.265l-6.281 1.942s.57 2.284-1.257 3.426c-1.829 1.141-1.598 3.43-1.598 3.43s-.687 2.508-2.284 3.079c-1.598.57-2.63 4.317-2.63 4.317l-5.255 6.054s-1.943 1.597-1.598 2.398c.346.802-2.058 1.027-2.058 1.027l1.257 20.349 10.855 2.058 6.718-.686 5.484-2.058 4.799-2.878 2.188-5.55 9.597-14.617-17.937-22.291z"/>
        <path fill="#EE8E9E" d="M334.26 265.579s-13.915-20.104-24.333-9.254c-10.418 10.851 4.228 28.437 7.654 27.866 3.426-.571 19.765-1.482 19.765-1.482l-3.085-17.13z"/>
        <path fill="#30374E" d="M305.445 263.193l12.89-11.619a6.058 6.058 0 0 1 8.553.441l14.321 15.865a6.058 6.058 0 0 1-.44 8.556v.001l-12.891 11.618a6.058 6.058 0 0 1-8.554-.441l-14.321-15.865a6.058 6.058 0 0 1 .44-8.556v-.001z"/>
        <path fill="#000" d="M305.445 263.193l12.89-11.619a6.058 6.058 0 0 1 8.553.441l14.321 15.865a6.058 6.058 0 0 1-.44 8.556v.001l-12.891 11.618a6.058 6.058 0 0 1-8.554-.441l-14.321-15.865a6.058 6.058 0 0 1 .44-8.556v-.001z" opacity=".1"/>
        <path fill="#30374E" d="M305.838 261.538l12.889-11.62a6.058 6.058 0 0 1 8.554.442l14.32 15.865a6.058 6.058 0 0 1-.439 8.555l-.001.002-12.89 11.617a6.058 6.058 0 0 1-8.555-.44l-14.32-15.866a6.058 6.058 0 0 1 .439-8.555l.001-.002z"/>
        <ellipse cx="323.133" cy="268.984" fill="#325FFF" rx="6.512" ry="6.509"/>
        <ellipse cx="323.133" cy="268.984" fill="#000" opacity=".1" rx="6.512" ry="6.509"/>
        <ellipse cx="323.498" cy="268.159" fill="#325FFF" rx="6.512" ry="6.509"/>
        <path fill="#EE8E9E" d="M325.24 269.786c-.116 15.076 31.075 18.271 31.075 18.271l7.966 1.267 3.57.566 1.488-14.718s-1.637-.244-3.681-.72c-3.018-.704-6.93-1.918-7.75-3.62-1.367-2.855-32.558-16.119-32.669-1.046z"/>
        <path fill="#000" d="M372.985 172.302c.72.053 1.399.355 1.92.854.883.935.93 2.595 2.078 3.17.428.187.903.242 1.363.159 3.037-.432 4.798-3.838 7.71-4.797 1.661-.537 3.49-.187 5.111.436.653.205 1.238.58 1.694 1.09.96 1.26.293 3.117.744 4.647.629 2.12 3.162 2.965 5.355 3.243 2.193.278 4.665.432 6.128 2.087 1.037 1.175 1.3 2.878 1.09 4.418a3.496 3.496 0 0 0 0 1.636c.604 1.712 3.57 1.439 4.342.105.566-.983.394-1.799 1.728-2.072.902-.187 1.962.192 2.797.48a20.501 20.501 0 0 0 7.237 1.112 26.15 26.15 0 0 0-3.466-27.608 26.172 26.172 0 0 0-45.83 11.04z" opacity=".1"/>
        <path fill="#434175" d="M406.163 188.554a3.496 3.496 0 0 1 0-1.636c.206-1.55-.053-3.247-1.09-4.418-1.439-1.655-3.934-1.813-6.127-2.087-2.193-.273-4.727-1.117-5.355-3.237-.451-1.53.23-3.392-.744-4.654a3.743 3.743 0 0 0-1.69-1.084c-1.626-.628-3.454-.959-5.115-.441-2.912.96-4.673 4.375-7.71 4.797-.46.083-.935.028-1.364-.158-1.147-.576-1.195-2.236-2.077-3.166-1.387-1.468-4.022-.523-5.72-1.612-1.109-.715-1.536-2.101-1.843-3.382-.605-2.485-1.09-5.09-.509-7.574.994-4.25 4.799-7.162 7.198-10.789 2.26-3.382 3.527-7.675 6.925-9.9 3.397-2.226 7.759-1.732 11.588-.595 1.795.532 3.57 1.194 5.427 1.439 3.09.379 6.19-.48 9.3-.566a19.977 19.977 0 0 1 12.28 3.727 6.794 6.794 0 0 1 2.006 2.029c.619 1.094.7 2.398.887 3.636a18.584 18.584 0 0 0 2.4 6.682c.96 1.607 2.164 3.065 3.032 4.725.869 1.66 1.377 3.622.82 5.406-.292.96-.873 1.79-1.088 2.754-.51 2.23.96 4.36 1.962 6.418a12.037 12.037 0 0 1 1.334 6.088 7.674 7.674 0 0 1-2.735 5.473c-1.617 1.266-3.743 1.688-5.792 1.756a20.535 20.535 0 0 1-7.38-1.109c-.84-.287-1.92-.666-2.798-.48-1.334.274-1.161 1.09-1.727 2.073-.73 1.343-3.69 1.597-4.295-.115z"/>
        <path fill="#000" d="M392.07 336.027l14.736-11.513 23.196-22.843s-3.119-.154-7.677-.346c-.83.845-1.57 1.92-1.617 3.119-.116 2.791-6.272.196-9.468 1.794-3.196 1.597-18.849 21.62-21.594 21.49-2.745-.13-4.909-1.391-6.056.552a1.18 1.18 0 0 1-.081.13 3.249 3.249 0 0 1-1.742 1.03l10.303 6.587z" opacity=".1"/>
        <path fill="#434175" d="M362.366 335.226l7.404 23.63 1.162 3.712 3.527-.96 7.773-2.134 34.627-9.507s6.507-.087 12.476-3.325c6.599-3.588 14.041-5.391 21.517-4.691 4.578.427 9.67-1.545 13.916-9.345 0 0 9.597-28.302-14.626-36.456-24.223-8.155-25.375 4.317-25.375 4.317s-.125.067-.326.201c-.96.6-3.575 2.485-3.671 4.797-.115 2.792-6.272.192-9.468 1.79-3.196 1.597-18.849 21.624-21.593 21.495-2.745-.13-4.91-1.391-6.056.551 0 .043-.053.082-.082.125-.844 1.166-3.388 1.44-5.072 1.482-.916.03-1.583 0-1.583 0l-.216.067-1.795.5-12.539 3.75z"/>
        <path fill="#000" d="M364.28 289.324l3.571.566 1.488-14.718s-1.637-.244-3.681-.72c.542 2.04-.686 9.988-1.377 14.872z" opacity=".1"/>
        <path fill="#000" d="M457.7 220.487s10.624-3.084 7.994 27.07c-2.63 30.153-22.275 49.202-22.275 49.202s-22.62 9.934-32.788 8.337c-10.169-1.597-17.592-1.919-17.592-1.919a25.819 25.819 0 0 0-10.284-2.739c-5.715-.23-17.706-3.77-17.937-4.912-.23-1.142 2.97-17.931 1.598-19.188 0 0 15.994.657 17.597 1.813 1.602 1.156 3.882.327 5.595 0 1.713-.326 6.972-4.897 17.366-.897 0 0 3.541.34 4.914-.57 1.372-.912 3.57-.23 3.57-.23s2.154-.802 2.486-1.282c.33-.48 3.08 0 3.08 0a1.22 1.22 0 0 0 1.718-.8 7.464 7.464 0 0 1 1.598-2.51s3.086-17.36 8.911-23.87c0 0 1.713-1.486 1.257-3.314-.456-1.827 9.497-27.85 23.192-24.19z" opacity=".1"/>
        <path fill="#565387" d="M457.44 218.165s10.625-3.084 8 27.07c-2.625 30.153-22.304 49.221-22.304 49.221s-22.62 9.935-32.789 8.337c-10.168-1.597-17.591-1.942-17.591-1.942a25.785 25.785 0 0 0-10.284-2.74c-5.71-.23-17.707-3.77-17.937-4.912-.23-1.141 2.97-17.93 1.603-19.187 0 0 15.994.657 17.592 1.813 1.597 1.156 3.886.326 5.6 0 1.713-.326 6.967-4.893 17.366-.897 0 0 3.541.34 4.909-.571 1.367-.911 3.575-.23 3.575-.23s2.14-.801 2.48-1.257c.341-.456 3.086 0 3.086 0a1.214 1.214 0 0 0 1.713-.796 7.454 7.454 0 0 1 1.598-2.514s3.085-17.36 8.911-23.87c0 0 1.713-1.487 1.257-3.31-.456-1.822 9.482-27.87 23.216-24.215z"/>
        <path fill="#000" d="M374.905 331.474l15.087 18.229c.057-.053.096-.091.096-.106.115-.345 1.598-4.226 1.257-4.456-.34-.23-2.97-5.939-8.225-8.337-3.21-1.44-5.312-4.073-6.459-5.877l-1.756.547z" opacity=".1"/>
        <path fill="#000" d="M375.111 363.057l1.651.96s3.839-3.07 7.635-6.16c3.795-3.089 7.5-6.116 7.562-6.288.11-.34 1.593-4.226 1.253-4.452-.178-.12-.96-1.703-2.4-3.535-10.23-2.878-3.719 4.236-2.85 4.562 0 0-12.476-2.878-13.139 10.702-.09 1.41.007 2.826.288 4.211z" opacity=".1"/>
        <path fill="#565387" d="M387.727 368.804l2.174 1.257 22.073.57s4.732 2.88 7.803 3.752c.362.113.732.195 1.108.245 2.043.165 4.095.204 6.142.115 1.69-.043 3-.115 3-.115s-1.047-27.823-1.834-30.7c-.374-1.401-2.221-1.094-4.045-.394a26.487 26.487 0 0 0-3.95 2s-9.366.907-10.854 1.713c-1.487.806-5.71-.48-8.34 0s-7.308-3.094-7.308-3.094c-12.798-4.222-5.6 3.655-4.688 4 0 0-12.448-2.878-13.134 10.702-.686 13.58 11.853 9.95 11.853 9.95z"/>
        <path fill="#565387" d="M419.604 358.069c.24 5.756 4.727 12.899 7.4 16.674 1.688-.043 2.998-.115 2.998-.115s-1.046-27.823-1.833-30.7c-.374-1.401-2.221-1.094-4.045-.394-2.193 4.125-4.712 9.896-4.52 14.535z"/>
        <path fill="#000" d="M419.604 358.069c.24 5.756 4.727 12.899 7.4 16.674 1.688-.043 2.998-.115 2.998-.115s-1.046-27.823-1.833-30.7c-.374-1.401-2.221-1.094-4.045-.394-2.193 4.125-4.712 9.896-4.52 14.535z" opacity=".1"/>
        <path fill="#000" d="M415.832 358.831c1.517 5.555 1.502 11.786 3.92 15.552.363.113.733.195 1.11.245 2.042.165 4.094.204 6.141.115 1.69-.043 3-.115 3-.115s-1.047-27.823-1.834-30.7c-.374-1.401-2.221-1.094-4.045-.394a26.487 26.487 0 0 0-3.95 2s-6.28 6.188-4.342 13.297z" opacity=".05"/>
        <path fill="#000" d="M339.765 302.486s10.95 3.555 20.23 16.18l-20.23-16.18z" opacity=".1"/>
        <g fill="#000" opacity=".1">
            <path d="M428.76 165.447a2.24 2.24 0 0 1-.068.24 7.745 7.745 0 0 1-.379.96 7.16 7.16 0 0 1 .447-1.2zM366.8 159.906c.19-.8.475-1.574.85-2.307-.058.197-.12.393-.168.595-.581 2.485-.096 5.09.508 7.574.312 1.281.734 2.667 1.843 3.382 1.703 1.09 4.319.14 5.72 1.607.883.936.93 2.595 2.082 3.171.429.187.903.242 1.363.158 3.033-.431 4.799-3.837 7.711-4.797 1.66-.537 3.484-.187 5.111.442.651.2 1.235.575 1.69 1.084.959 1.261.292 3.123.743 4.648.629 2.12 3.162 2.965 5.355 3.238 2.193.273 4.664.432 6.128 2.091 1.036 1.17 1.3 2.879 1.09 4.418a3.558 3.558 0 0 0 0 1.636c.604 1.713 3.57 1.44 4.318.106.566-.984.398-1.8 1.732-2.073.898-.187 1.958.192 2.793.48a20.535 20.535 0 0 0 7.38 1.108c2.05-.072 4.18-.48 5.792-1.755a6.716 6.716 0 0 0 1.776-2.16 7.262 7.262 0 0 1-2.448 3.877c-1.612 1.266-3.738 1.688-5.792 1.756a20.492 20.492 0 0 1-7.375-1.109c-.84-.287-1.92-.666-2.798-.48-1.334.274-1.166 1.09-1.727 2.073-.777 1.353-3.738 1.607-4.348-.106a3.558 3.558 0 0 1 0-1.635c.212-1.55-.048-3.248-1.084-4.418-1.468-1.655-3.94-1.814-6.133-2.087-2.193-.273-4.726-1.118-5.35-3.238-.456-1.53.23-3.391-.744-4.653a3.781 3.781 0 0 0-1.694-1.084c-1.627-.628-3.45-.96-5.11-.441-2.918.959-4.679 4.374-7.712 4.797-.46.083-.934.028-1.362-.159-1.152-.575-1.2-2.235-2.083-3.166-1.387-1.468-4.016-.523-5.715-1.611-1.113-.715-1.536-2.102-1.848-3.382-.595-2.49-1.08-5.095-.494-7.58z"/>
        </g>
        <path fill="#000" d="M430.53 251.312c-2.092 2.826-4.482 5.44-6.334 8.429-1.852 2.988-3.162 6.476-2.773 9.968 1.919-1.967 2.792-4.682 4.002-7.148 2.044-4.173 5.105-7.713 7.677-11.55.48-.735 3.652-4.966 2.054-5.167-1.315-.168-3.91 4.504-4.626 5.468z" opacity=".1"/>
    </g>
</svg>
